<svg width="30" height="30" viewBox="0 0 30 30" fill="none" xmlns="http://www.w3.org/2000/svg">
<g clip-path="url(#clip0_1820_370)">
<path d="M14.7415 27.2155C7.95679 27.2155 2.45703 21.7158 2.45703 14.9311C2.45703 8.14634 7.95679 2.64658 14.7415 2.64658C21.5262 2.64658 27.026 8.14634 27.026 14.9311C27.026 21.7158 21.5262 27.2155 14.7415 27.2155ZM8.61524 22.6162C10.3542 24.0065 12.5152 24.7622 14.7415 24.7586C17.1616 24.7586 19.3764 23.884 21.0889 22.4344C20.2888 21.6135 19.3323 20.9614 18.2758 20.5166C17.2193 20.0718 16.0844 19.8434 14.9381 19.8449C13.7497 19.8435 12.5739 20.0891 11.4855 20.5662C10.397 21.0433 9.41961 21.7414 8.61524 22.6162ZM6.8991 20.8522C7.93155 19.7565 9.17747 18.8839 10.56 18.2881C11.9426 17.6923 13.4326 17.3859 14.9381 17.388C16.3897 17.3861 17.8273 17.6709 19.1685 18.2262C20.5097 18.7815 21.728 19.5963 22.7535 20.6237C23.8051 19.1436 24.4261 17.401 24.5477 15.5894C24.6692 13.7778 24.2865 11.9679 23.442 10.3606C22.5975 8.75322 21.3242 7.41126 19.7634 6.48357C18.2026 5.55587 16.4153 5.07871 14.5998 5.10501C12.7843 5.13132 11.0115 5.66006 9.47825 6.63259C7.94498 7.60512 6.7111 8.98341 5.91351 10.6145C5.11591 12.2457 4.78579 14.0659 4.95977 15.8732C5.13374 17.6806 5.80501 19.4044 6.8991 20.8534V20.8522ZM14.7415 16.1595C13.4383 16.1595 12.1885 15.6418 11.2669 14.7203C10.3454 13.7988 9.82772 12.5489 9.82772 11.2457C9.82772 9.94249 10.3454 8.69265 11.2669 7.77114C12.1885 6.84962 13.4383 6.33192 14.7415 6.33192C16.0447 6.33192 17.2946 6.84962 18.2161 7.77114C19.1376 8.69265 19.6553 9.94249 19.6553 11.2457C19.6553 12.5489 19.1376 13.7988 18.2161 14.7203C17.2946 15.6418 16.0447 16.1595 14.7415 16.1595ZM14.7415 13.7026C15.3931 13.7026 16.018 13.4438 16.4788 12.983C16.9396 12.5222 17.1984 11.8973 17.1984 11.2457C17.1984 10.5941 16.9396 9.96918 16.4788 9.50843C16.018 9.04767 15.3931 8.78882 14.7415 8.78882C14.0899 8.78882 13.465 9.04767 13.0042 9.50843C12.5435 9.96918 12.2846 10.5941 12.2846 11.2457C12.2846 11.8973 12.5435 12.5222 13.0042 12.983C13.465 13.4438 14.0899 13.7026 14.7415 13.7026Z" fill="black"/>
</g>
<defs>
<clipPath id="clip0_1820_370">
<rect width="29.4828" height="29.4828" fill="white" transform="translate(0 0.189667)"/>
</clipPath>
</defs>
</svg>
