<svg width="84" height="16" viewBox="0 0 84 16" fill="none" xmlns="http://www.w3.org/2000/svg">
<path d="M76.8296 0.349187L76.9578 0.363187L77.086 0.385187L77.2143 0.413187L77.3425 0.447187L77.4707 0.489187L77.5969 0.539187L77.721 0.595187L77.8451 0.661187L80.3311 2.03719L82.78 3.39119L82.8999 3.46319L83.0158 3.53919L83.1233 3.62119L83.2247 3.70519L83.3219 3.79519L83.4108 3.88919L83.4956 3.98519L83.5721 4.08719L83.6424 4.18919L83.7086 4.29719L83.7665 4.40519L83.8203 4.51719L83.8658 4.62919L83.9051 4.74519L83.9403 4.86119L83.9672 4.97919L83.9899 5.09919L84.0044 5.21919L84.0147 5.33919L84.0168 5.46119L84.0147 5.58119L84.0044 5.70119L83.9899 5.82119L83.9672 5.94119L83.9403 6.05919L83.9051 6.17519L83.8658 6.29119L83.8203 6.40519L83.7665 6.51719L83.7086 6.62519L83.6424 6.73319L83.5721 6.83719L83.4956 6.93719L83.4108 7.03519L83.3219 7.12919L83.2247 7.21919L83.1233 7.30319L83.0158 7.38519L82.8999 7.46319L82.78 7.53319L80.3311 8.88919L77.8451 10.2652L77.721 10.3312L77.5969 10.3872L77.4707 10.4372L77.3425 10.4812L77.2143 10.5152L77.086 10.5432L76.9578 10.5652L76.8296 10.5792L76.7013 10.5872H76.5752L76.449 10.5832L76.3229 10.5712L76.1988 10.5532L76.0747 10.5292L75.9547 10.4992L75.8347 10.4632L75.7168 10.4212L75.6031 10.3752L75.4914 10.3212L75.3818 10.2632L75.2763 10.2012L75.1729 10.1332L75.0736 10.0612L74.9785 9.98319L74.8854 9.90119L74.7985 9.81319L74.7158 9.72319L74.6372 9.62719L74.5648 9.52719L74.4966 9.42519L74.4325 9.31719L74.3766 9.20519L74.3249 9.09119L74.2794 8.97319L74.2401 8.85119L74.2091 8.72719L74.1822 8.59919L74.1656 8.46719L74.1532 8.33519L74.1491 8.19719V7.83519V7.80919L74.147 7.78119L74.1429 7.75519L74.1388 7.73119L74.1326 7.70519L74.1243 7.68119L74.116 7.65919L74.1057 7.63519L74.0933 7.61519L74.0808 7.59319L74.0684 7.57319L74.054 7.55319L74.0374 7.53319L74.0229 7.51519L74.0043 7.49919L73.9857 7.48319L73.9671 7.46719L73.9485 7.45319L73.9278 7.43919L73.9071 7.42719L73.8864 7.41519L73.8637 7.40519L73.8409 7.39519L73.8182 7.38719L73.7934 7.38119L73.7706 7.37519L73.7458 7.36919L73.721 7.36519L73.6962 7.36319H73.6713H73.6465H73.6217L73.5969 7.36719L73.57 7.37119L73.5452 7.37519L73.5203 7.38319L73.4955 7.39119L73.4707 7.40119L73.4459 7.41119L73.4211 7.42519L71.1543 8.68519L68.8957 9.93719L68.873 9.95119L68.8502 9.96519L68.8275 9.98119L68.8088 9.99919L68.7902 10.0152L68.7716 10.0352L68.7551 10.0532L68.7406 10.0732L68.7261 10.0932L68.7137 10.1152L68.7013 10.1352L68.6909 10.1572L68.6827 10.1812L68.6744 10.2032L68.6682 10.2272L68.662 10.2492L68.6579 10.2732L68.6537 10.2972L68.6516 10.3212V10.3452V10.3692L68.6537 10.3912L68.6579 10.4152L68.662 10.4392L68.6682 10.4632L68.6744 10.4852L68.6827 10.5092L68.6909 10.5312L68.7013 10.5532L68.7137 10.5752L68.7261 10.5952L68.7406 10.6152L68.7551 10.6352L68.7716 10.6552L68.7902 10.6732L68.8088 10.6912L68.8275 10.7072L68.8502 10.7232L68.873 10.7372L68.8957 10.7512L71.1543 12.0052L73.4211 13.2652L73.4459 13.2772L73.4707 13.2892L73.4955 13.2972L73.5203 13.3052L73.5452 13.3132L73.57 13.3192L73.5969 13.3232L73.6217 13.3252L73.6465 13.3272H73.6713L73.6962 13.3252L73.721 13.3232L73.7458 13.3192L73.7706 13.3152L73.7934 13.3092L73.8182 13.3012L73.8409 13.2932L73.8637 13.2832L73.8864 13.2732L73.9071 13.2612L73.9278 13.2492L73.9485 13.2352L73.9671 13.2212L73.9857 13.2072L74.0043 13.1892L74.0229 13.1732L74.0374 13.1552L74.054 13.1352L74.0684 13.1172L74.0808 13.0952L74.0933 13.0752L74.1057 13.0532L74.116 13.0312L74.1243 13.0072L74.1326 12.9832L74.1388 12.9572L74.1429 12.9332L74.147 12.9072L74.1491 12.8812V12.8532V12.1212L74.1512 12.0952L74.1532 12.0692L74.1553 12.0432L74.1615 12.0192L74.1677 11.9952L74.1739 11.9712L74.1843 11.9472L74.1925 11.9252L74.2049 11.9032L74.2174 11.8832L74.2298 11.8632L74.2442 11.8432L74.2587 11.8252L74.2753 11.8072L74.2918 11.7892L74.3104 11.7732L74.329 11.7592L74.3477 11.7452L74.3663 11.7312L74.387 11.7192L74.4097 11.7072L74.4304 11.6972L74.4531 11.6872L74.4759 11.6792L74.4986 11.6732L74.5214 11.6672L74.5462 11.6632L74.569 11.6592L74.5938 11.6572L74.6186 11.6552H74.6434L74.6682 11.6572L74.6931 11.6592L74.7179 11.6632L74.7427 11.6692L74.7675 11.6752L74.7923 11.6832L74.8172 11.6932L74.8399 11.7052L74.8647 11.7172L76.0188 12.3532L76.0312 12.3612L76.0416 12.3672L76.0519 12.3732L76.0643 12.3812L76.0747 12.3872L76.085 12.3952L76.0953 12.4032L76.1036 12.4112L76.114 12.4192L76.1222 12.4292L76.1326 12.4372L76.1408 12.4472L76.1491 12.4552L76.1574 12.4652L76.1657 12.4752L76.1739 12.4852L76.1801 12.4952L76.1884 12.5052L76.1946 12.5152L76.2008 12.5252L76.207 12.5372L76.2132 12.5472L76.2194 12.5592L76.2236 12.5692L76.2298 12.5812L76.2339 12.5932L76.2381 12.6052L76.2422 12.6152L76.2463 12.6272L76.2505 12.6392L76.2525 12.6512L76.2567 12.6632L76.2587 12.6772L76.2608 12.6892L76.2629 12.7012V12.7132L76.2649 12.7272V12.7392L76.267 12.7512V12.7652V13.0732L76.2629 13.2092L76.2505 13.3432L76.2339 13.4732L76.207 13.6012L76.176 13.7252L76.1367 13.8472L76.0912 13.9652L76.0395 14.0792L75.9837 14.1912L75.9195 14.2972L75.8513 14.4012L75.7789 14.5012L75.7003 14.5952L75.6176 14.6872L75.5307 14.7732L75.4397 14.8552L75.3425 14.9332L75.2432 15.0052L75.1398 15.0732L75.0343 15.1352L74.9247 15.1932L74.813 15.2452L74.6993 15.2932L74.5814 15.3352L74.4614 15.3692L74.3414 15.3992L74.2174 15.4232L74.0933 15.4412L73.9671 15.4532L73.8409 15.4592H73.7148L73.5865 15.4512L73.4583 15.4372L73.3301 15.4152L73.2018 15.3892L73.0736 15.3532L72.9454 15.3112L72.8192 15.2612L72.6951 15.2052L72.571 15.1412L70.085 13.7652L67.6361 12.4092L67.5162 12.3372L67.4003 12.2612L67.2928 12.1792L67.1915 12.0952L67.0942 12.0052L67.0053 11.9112L66.9205 11.8152L66.844 11.7132L66.7737 11.6092L66.7075 11.5032L66.6496 11.3952L66.5958 11.2832L66.5503 11.1692L66.511 11.0532L66.4758 10.9372L66.4489 10.8192L66.4262 10.6992L66.4117 10.5792L66.4014 10.4592L66.3993 10.3372L66.4014 10.2172L66.4117 10.0952L66.4262 9.97519L66.4489 9.85719L66.4758 9.73919L66.511 9.62119L66.5503 9.50519L66.5958 9.39319L66.6496 9.28119L66.7075 9.17119L66.7737 9.06519L66.844 8.96119L66.9205 8.86119L67.0053 8.76319L67.0942 8.67119L67.1915 8.58119L67.2928 8.49519L67.4003 8.41519L67.5162 8.33719L67.6361 8.26719L70.085 6.91119L72.571 5.53519L72.6951 5.46919L72.8192 5.41319L72.9454 5.36319L73.0736 5.32119L73.2018 5.28519L73.3301 5.25719L73.4583 5.23519L73.5865 5.22119L73.7148 5.21319H73.8409L73.9671 5.21919L74.0933 5.22919L74.2174 5.24719L74.3414 5.27119L74.4614 5.30119L74.5814 5.33719L74.6993 5.37919L74.813 5.42719L74.9247 5.47919L75.0343 5.53719L75.1398 5.59919L75.2432 5.66719L75.3425 5.74119L75.4397 5.81719L75.5307 5.89919L75.6176 5.98719L75.7003 6.07719L75.7789 6.17319L75.8513 6.27319L75.9195 6.37719L75.9837 6.48319L76.0395 6.59519L76.0912 6.70919L76.1367 6.82719L76.176 6.94919L76.207 7.07319L76.2339 7.20119L76.2505 7.33319L76.2629 7.46719L76.267 7.60319V7.96519V7.99319L76.2691 8.01919L76.2732 8.04519L76.2774 8.06919L76.2836 8.09519L76.2918 8.11919L76.3001 8.14119L76.3104 8.16519L76.3229 8.18719L76.3353 8.20719L76.3477 8.22719L76.3622 8.24719L76.3787 8.26719L76.3952 8.28519L76.4118 8.30119L76.4304 8.31719L76.449 8.33319L76.4676 8.34719L76.4883 8.36119L76.509 8.37319L76.5297 8.38519L76.5524 8.39519L76.5752 8.40519L76.5979 8.41319L76.6227 8.41919L76.6455 8.42519L76.6703 8.43119L76.6951 8.43519L76.72 8.43719H76.7448H76.7696H76.7944L76.8192 8.43319L76.8461 8.42919L76.8709 8.42519L76.8958 8.41719L76.9206 8.40919L76.9454 8.39919L76.9702 8.38919L76.995 8.37519L79.2619 7.11719L81.5204 5.86319L81.5432 5.84919L81.5659 5.83519L81.5887 5.81919L81.6073 5.80319L81.6259 5.78519L81.6445 5.76719L81.661 5.74719L81.6755 5.72719L81.69 5.70719L81.7024 5.68519L81.7148 5.66519L81.7252 5.64319L81.7334 5.62119L81.7417 5.59719L81.75 5.57519L81.7541 5.55119L81.7583 5.52719L81.7624 5.50319L81.7645 5.47919V5.45519V5.43319L81.7624 5.40919L81.7583 5.38519L81.7541 5.36119L81.75 5.33719L81.7417 5.31519L81.7334 5.29119L81.7252 5.26919L81.7148 5.24719L81.7024 5.22719L81.69 5.20519L81.6755 5.18519L81.661 5.16519L81.6445 5.14519L81.6259 5.12719L81.6073 5.10919L81.5887 5.09319L81.5659 5.07719L81.5432 5.06319L81.5204 5.04919L79.2619 3.79519L76.995 2.53719L76.9702 2.52319L76.9454 2.51319L76.9206 2.50319L76.8958 2.49519L76.8709 2.48719L76.8461 2.48319L76.8192 2.47919L76.7944 2.47519H76.7696H76.7448H76.72L76.6951 2.47719L76.6703 2.48119L76.6455 2.48719L76.6227 2.49319L76.5979 2.49919L76.5752 2.50719L76.5524 2.51719L76.5297 2.52719L76.509 2.53919L76.4883 2.55119L76.4676 2.56519L76.449 2.57919L76.4304 2.59519L76.4118 2.61119L76.3952 2.62719L76.3787 2.64519L76.3622 2.66519L76.3477 2.68519L76.3353 2.70519L76.3229 2.72519L76.3104 2.74719L76.3001 2.77119L76.2918 2.79319L76.2836 2.81719L76.2774 2.84319L76.2732 2.86719L76.2691 2.89319L76.267 2.91919V2.94719V3.67919L76.2649 3.70519L76.2629 3.73119L76.2608 3.75719L76.2546 3.78119L76.2484 3.80719L76.2422 3.82919L76.2318 3.85319L76.2236 3.87519L76.2112 3.89719L76.1988 3.91719L76.1863 3.93719L76.1719 3.95719L76.1574 3.97519L76.1408 3.99319L76.1243 4.01119L76.1057 4.02719L76.0891 4.04119L76.0685 4.05519L76.0498 4.06919L76.0292 4.08119L76.0064 4.09319L75.9857 4.10319L75.963 4.11319L75.9402 4.12119L75.9175 4.12719L75.8947 4.13319L75.8699 4.13919L75.8471 4.14119L75.8223 4.14519H75.7975H75.7727L75.7479 4.14319L75.7231 4.14119L75.6982 4.13719L75.6734 4.13119L75.6486 4.12519L75.6238 4.11719L75.599 4.10719L75.5762 4.09519L75.5514 4.08319L74.3973 3.44719L74.3849 3.44119L74.3745 3.43319L74.3642 3.42719L74.3518 3.41919L74.3414 3.41319L74.3311 3.40519L74.3208 3.39719L74.3125 3.38919L74.3022 3.38119L74.2939 3.37119L74.2835 3.36319L74.2753 3.35319L74.267 3.34519L74.2587 3.33519L74.2504 3.32519L74.2422 3.31519L74.236 3.30519L74.2277 3.29519L74.2215 3.28519L74.2153 3.27519L74.2091 3.26319L74.2029 3.25319L74.1967 3.24119L74.1925 3.23119L74.1863 3.21919L74.1822 3.20719L74.1781 3.19719L74.1739 3.18519L74.1698 3.17319L74.1656 3.16119L74.1636 3.14919L74.1594 3.13719L74.1574 3.12519L74.1553 3.11119L74.1532 3.09919V3.08719L74.1512 3.07519V3.06119L74.1491 3.04919V3.03519V2.72719L74.1532 2.59119L74.1656 2.45719L74.1822 2.32719L74.2091 2.19919L74.2401 2.07519L74.2794 1.95319L74.3249 1.83519L74.3766 1.72119L74.4325 1.60919L74.4966 1.50319L74.5648 1.39919L74.6372 1.29919L74.7158 1.20519L74.7985 1.11319L74.8854 1.02719L74.9785 0.945186L75.0736 0.867186L75.1729 0.795186L75.2763 0.727187L75.3818 0.665186L75.4914 0.607187L75.6031 0.555187L75.7168 0.507187L75.8347 0.467187L75.9547 0.431187L76.0747 0.401187L76.1988 0.377187L76.3229 0.359187L76.449 0.347187L76.5752 0.341187H76.7013L76.8296 0.349187ZM64.3517 3.85119H66.722L60.9804 15.3052H58.6019L60.7467 11.0252L57.3775 3.85119H59.8202L61.9856 8.65719L64.3517 3.85119ZM43.2782 3.71319L43.4478 3.73119L43.6153 3.75519L43.7807 3.78719L43.9421 3.82319L44.1034 3.86719L44.2585 3.91719L44.4136 3.97319L44.5646 4.03519L44.7115 4.10319L44.8542 4.17719L44.9948 4.25719L45.1313 4.34119L45.2658 4.43319L45.394 4.52719L45.5202 4.62919L45.6401 4.73519L45.758 4.84519L45.8697 4.96119L45.9772 5.08119L46.0807 5.20519L46.1799 5.33519L46.273 5.46719L46.3599 5.60519L46.4447 5.74719L46.5212 5.89319L46.5936 6.04119L46.6598 6.19519L46.7218 6.35119L46.7756 6.51119L46.8252 6.67319L46.8687 6.83919L46.9059 7.00919L46.9349 7.18119L46.9597 7.35719L46.9762 7.53319L46.9866 7.71519L46.9907 7.89719L46.9866 8.07919L46.9762 8.25919L46.9597 8.43719L46.9349 8.61319L46.9038 8.78519L46.8666 8.95519L46.8232 9.12119L46.7715 9.28519L46.7156 9.44519L46.6536 9.60119L46.5874 9.75519L46.5129 9.90519L46.4343 10.0512L46.3495 10.1932L46.2606 10.3312L46.1655 10.4652L46.0662 10.5932L45.9607 10.7192L45.8511 10.8392L45.7373 10.9552L45.6194 11.0672L45.4953 11.1732L45.3692 11.2752L45.2389 11.3712L45.1044 11.4612L44.9659 11.5472L44.8232 11.6272L44.6763 11.7012L44.5274 11.7692L44.3764 11.8312L44.2213 11.8892L44.062 11.9392L43.9007 11.9832L43.7373 12.0212L43.5719 12.0512L43.4023 12.0752L43.2327 12.0932L43.0589 12.1032L42.8831 12.1072H42.8025L42.7218 12.1052L42.6432 12.1012L42.5625 12.0952L42.486 12.0872L42.4074 12.0792L42.3309 12.0692L42.2544 12.0572L42.1799 12.0452L42.1054 12.0292L42.0331 12.0132L41.9607 11.9972L41.8883 11.9772L41.818 11.9572L41.7476 11.9352L41.6773 11.9112L41.6091 11.8872L41.5429 11.8612L41.4767 11.8332L41.4105 11.8052L41.3464 11.7752L41.2823 11.7432L41.2182 11.7112L41.1561 11.6772L41.0961 11.6412L41.0362 11.6052L40.9762 11.5672L40.9183 11.5292L40.8604 11.4872L40.8045 11.4472L40.7487 11.4032L40.6949 11.3592L40.6411 11.3152L40.5894 11.2672L40.5377 11.2212L40.4881 11.1712L40.4384 11.1212L40.3888 11.0712L40.3433 11.0192V15.2972H38.2109V3.85119H40.2792V4.90519L40.3267 4.84919L40.3764 4.79319L40.4281 4.73719L40.4798 4.68519L40.5336 4.63319L40.5873 4.58119L40.6432 4.53119L40.699 4.48319L40.7569 4.43719L40.8149 4.39119L40.8748 4.34519L40.9369 4.30319L40.9989 4.26119L41.061 4.22119L41.1251 4.18119L41.1913 4.14319L41.2554 4.10719L41.3236 4.07319L41.3919 4.03919L41.4602 4.00719L41.5305 3.97719L41.6008 3.94719L41.6732 3.91919L41.7456 3.89319L41.818 3.86919L41.8924 3.84719L41.9689 3.82519L42.0434 3.80519L42.122 3.78719L42.1985 3.77119L42.2771 3.75719L42.3557 3.74319L42.4364 3.73119L42.517 3.72319L42.5998 3.71519L42.6825 3.70719L42.7652 3.70319L42.848 3.70119L42.9328 3.69919L43.1065 3.70319L43.2782 3.71319ZM52.0621 3.71319L52.1593 3.71919L52.2565 3.72719L52.3537 3.73919L52.4489 3.75319L52.5419 3.77119L52.635 3.78919L52.726 3.81119L52.817 3.83519L52.9059 3.86119L52.9949 3.88919L53.0817 3.92119L53.1665 3.95319L53.2513 3.98719L53.3341 4.02519L53.4168 4.06519L53.4954 4.10519L53.5761 4.14919L53.6526 4.19519L53.7291 4.24119L53.8036 4.29119L53.876 4.34119L53.9483 4.39519L54.0187 4.44919L54.0869 4.50519L54.1552 4.56319L54.2193 4.62319L54.2834 4.68519L54.3475 4.74719L54.4075 4.81119L54.4675 4.87719V3.85119H56.5337V11.9852H54.4675V10.9292L54.4075 10.9972L54.3475 11.0632L54.2834 11.1292L54.2193 11.1912L54.1531 11.2512L54.0848 11.3112L54.0166 11.3692L53.9442 11.4232L53.8718 11.4772L53.7974 11.5292L53.7208 11.5792L53.6443 11.6272L53.5657 11.6732L53.4851 11.7152L53.4023 11.7572L53.3196 11.7972L53.2348 11.8332L53.15 11.8692L53.0611 11.9012L52.9721 11.9332L52.8832 11.9612L52.7922 11.9872L52.6991 12.0112L52.606 12.0332L52.5109 12.0512L52.4137 12.0672L52.3165 12.0812L52.2172 12.0932L52.1179 12.1032L52.0166 12.1092L51.9152 12.1132L51.8118 12.1152L51.5967 12.1092L51.3858 12.0932L51.1789 12.0672L50.9742 12.0332L50.7756 11.9872L50.5812 11.9332L50.3909 11.8692L50.2048 11.7972L50.0228 11.7152L49.849 11.6272L49.6774 11.5272L49.514 11.4212L49.3547 11.3072L49.2037 11.1852L49.0569 11.0572L48.9183 10.9192L48.7859 10.7752L48.6598 10.6252L48.5419 10.4672L48.4302 10.3052L48.3268 10.1352L48.2317 9.95919L48.1427 9.77719L48.0641 9.58919L47.9938 9.39719L47.9318 9.19919L47.878 8.99719L47.8345 8.78919L47.7994 8.57719L47.7746 8.36119L47.7601 8.14119L47.756 7.91719L47.7601 7.69519L47.7766 7.47719L47.8015 7.26119L47.8387 7.05119L47.8842 6.84319L47.938 6.64119L48.0021 6.44319L48.0745 6.25119L48.1572 6.06319L48.2461 5.88119L48.3454 5.70519L48.4509 5.53519L48.5646 5.37119L48.6867 5.21319L48.8149 5.06119L48.9514 4.91519L49.0921 4.77919L49.241 4.64719L49.3961 4.52519L49.5574 4.40919L49.7229 4.30119L49.8966 4.20319L50.0724 4.11119L50.2544 4.02919L50.4426 3.95519L50.6329 3.89119L50.8294 3.83519L51.028 3.78919L51.2327 3.75319L51.4395 3.72719L51.6484 3.71319L51.8615 3.70719L51.9628 3.70919L52.0621 3.71319ZM4.71533 3.70919L4.86838 3.72119L5.01936 3.73719L5.17035 3.75919L5.31719 3.78519L5.46197 3.81519L5.60468 3.84919L5.74533 3.88719L5.8839 3.92919L6.02041 3.97719L6.15277 4.02719L6.28308 4.08319L6.41131 4.14119L6.53747 4.20319L6.66157 4.27119L6.78153 4.34119L6.89942 4.41519L7.01317 4.49119L7.12486 4.57319L7.23241 4.65719L7.33789 4.74519L7.43924 4.83519L7.53851 4.93119L7.63365 5.02719L7.72673 5.12919L7.81566 5.23119L7.90046 5.33919L7.98112 5.44719L8.05972 5.55919L8.13417 5.67519L8.20449 5.79319L8.27068 5.91319L8.33273 6.03519L8.39271 6.16119L8.44648 6.28919L8.49819 6.41919L8.54369 6.55119L8.58506 6.68519L8.62435 6.82119H6.43613L6.4051 6.76719L6.37408 6.71319L6.34099 6.66119L6.30789 6.60919L6.27273 6.55919L6.23551 6.50919L6.19828 6.46119L6.15898 6.41319L6.11761 6.36719L6.07625 6.32319L6.03488 6.27919L5.98938 6.23519L5.94595 6.19319L5.89838 6.15319L5.85288 6.11519L5.80324 6.07719L5.75567 6.03919L5.70396 6.00519L5.65432 5.97119L5.60262 5.93719L5.54884 5.90719L5.49507 5.87719L5.44129 5.84919L5.38545 5.82119L5.32961 5.79519L5.27376 5.77119L5.21585 5.74919L5.15794 5.72719L5.10003 5.70919L5.04005 5.69119L4.98007 5.67519L4.92009 5.65919L4.85804 5.64719L4.79599 5.63519L4.73394 5.62519L4.6719 5.61719L4.60985 5.61119L4.54573 5.60719L4.48162 5.60519L4.4175 5.60319L4.32443 5.60519L4.23342 5.61119L4.14242 5.61919L4.05142 5.63319L3.96248 5.64919L3.87355 5.66719L3.78668 5.69119L3.70188 5.71719L3.61708 5.74719L3.53435 5.77919L3.45369 5.81519L3.37509 5.85319L3.2965 5.89519L3.21997 5.93919L3.14758 5.98719L3.07519 6.03719L3.00487 6.08919L2.93662 6.14519L2.87044 6.20319L2.80632 6.26319L2.74634 6.32719L2.68636 6.39319L2.63052 6.46119L2.57674 6.53119L2.5271 6.60319L2.47747 6.67719L2.43196 6.75319L2.38853 6.83319L2.34923 6.91319L2.31407 6.99519L2.27891 7.07919L2.24996 7.16519L2.22307 7.25319L2.19825 7.34319L2.17757 7.43319L2.16102 7.52719L2.14861 7.62119L2.13827 7.71519L2.13206 7.81319V7.91119V8.00919L2.13827 8.10519L2.14861 8.20119L2.16102 8.29519L2.17757 8.38719L2.19825 8.47719L2.22307 8.56719L2.24996 8.65519L2.27891 8.74119L2.31407 8.82519L2.34923 8.90719L2.38853 8.98919L2.43196 9.06719L2.47747 9.14319L2.5271 9.21919L2.57674 9.29119L2.63052 9.36119L2.68636 9.42919L2.74634 9.49319L2.80632 9.55719L2.87044 9.61719L2.93662 9.67519L3.00487 9.73119L3.07519 9.78519L3.14758 9.83519L3.21997 9.88119L3.2965 9.92719L3.37509 9.96719L3.45369 10.0072L3.53435 10.0432L3.61708 10.0752L3.70188 10.1032L3.78668 10.1312L3.87355 10.1532L3.96248 10.1732L4.05142 10.1892L4.14242 10.2012L4.23342 10.2112L4.32443 10.2152L4.4175 10.2172H4.48368L4.54987 10.2152L4.61605 10.2092L4.68224 10.2032L4.74635 10.1952L4.81047 10.1852L4.87459 10.1752L4.93663 10.1612L4.99868 10.1472L5.06073 10.1292L5.12071 10.1112L5.18069 10.0912L5.24067 10.0712L5.29858 10.0472L5.35649 10.0232L5.41234 9.99719L5.46818 9.96919L5.52402 9.93919L5.5778 9.90919L5.6295 9.87719L5.68328 9.84319L5.73292 9.80919L5.78462 9.77119L5.83219 9.73519L5.87976 9.69519L5.92733 9.65519L5.97284 9.61319L6.01627 9.56919L6.0597 9.52519L6.10314 9.47919L6.14243 9.43119L6.1838 9.38319L6.22103 9.33319L6.25826 9.28119L6.29342 9.22919L6.32858 9.17719L6.3596 9.12119L6.39269 9.06519L6.42165 9.00919L6.45061 8.95119H8.63676L8.53128 9.10719L8.4258 9.25919L8.32032 9.40719L8.21484 9.55119L8.10729 9.69119L8.0018 9.82719L7.89632 9.95919L7.78877 10.0872L7.68329 10.2112L7.57781 10.3312L7.47026 10.4492L7.36478 10.5612L7.25723 10.6692L7.15175 10.7732L7.0442 10.8752L6.93872 10.9712L6.83117 11.0632L6.72568 11.1532L6.61813 11.2372L6.51265 11.3192L6.4051 11.3952L6.29755 11.4692L6.19207 11.5372L6.08452 11.6032L5.97697 11.6632L5.87149 11.7212L5.76394 11.7732L5.65639 11.8232L5.54884 11.8692L5.44336 11.9092L5.33581 11.9472L5.22826 11.9812L5.12071 12.0112L5.01316 12.0372L4.90561 12.0572L4.79806 12.0752L4.69051 12.0892L4.58296 12.0992L4.47541 12.1052L4.36786 12.1072L4.18379 12.1032L3.99971 12.0932L3.81977 12.0772L3.6419 12.0552L3.46817 12.0252L3.2965 11.9892L3.1269 11.9472L2.96144 11.9012L2.79805 11.8472L2.63879 11.7872L2.48367 11.7232L2.33269 11.6532L2.18377 11.5772L2.03899 11.4952L1.89835 11.4092L1.76185 11.3192L1.62948 11.2212L1.50124 11.1212L1.37922 11.0152L1.25926 10.9052L1.1455 10.7912L1.03588 10.6712L0.930402 10.5472L0.831125 10.4192L0.735985 10.2892L0.64705 10.1532L0.564319 10.0132L0.485725 9.87119L0.411267 9.72519L0.345083 9.57519L0.283035 9.42119L0.22926 9.26519L0.179621 9.10519L0.136188 8.94319L0.0989591 8.77719L0.0700034 8.60919L0.0451842 8.43719L0.028638 8.26519L0.0182967 8.08919L0.0141602 7.91119L0.0182967 7.73319L0.028638 7.55719L0.0451842 7.38319L0.0700034 7.21119L0.101027 7.04319L0.138256 6.87719L0.18169 6.71519L0.231328 6.55519L0.287171 6.39919L0.349219 6.24519L0.417472 6.09519L0.49193 5.94719L0.570524 5.80319L0.655323 5.66519L0.746326 5.52919L0.841467 5.39719L0.942812 5.26919L1.04829 5.14519L1.15791 5.02519L1.27373 4.90919L1.39369 4.79919L1.51986 4.69319L1.64809 4.59119L1.78253 4.49319L1.91903 4.40319L2.06174 4.31519L2.20652 4.23319L2.35751 4.15719L2.51056 4.08719L2.66568 4.02119L2.827 3.96319L2.9904 3.90919L3.15793 3.86119L3.32752 3.81919L3.49919 3.78319L3.67499 3.75319L3.85286 3.73119L4.03487 3.71319L4.21895 3.70319L4.40302 3.69919L4.56021 3.70319L4.71533 3.70919ZM17.4641 3.72119L17.6503 3.73719L17.8323 3.76119L18.0122 3.79319L18.188 3.82919L18.3597 3.87319L18.5293 3.92319L18.6947 3.97919L18.8561 4.04119L19.0133 4.10719L19.1684 4.18119L19.3173 4.26119L19.4641 4.34519L19.6048 4.43519L19.7413 4.53119L19.8737 4.63119L20.0019 4.73719L20.1239 4.84719L20.2418 4.96319L20.3556 5.08319L20.4631 5.20919L20.5645 5.33919L20.6617 5.47119L20.7547 5.61119L20.8395 5.75319L20.9202 5.89919L20.9947 6.04919L21.065 6.20319L21.127 6.36119L21.1849 6.52319L21.2346 6.68719L21.278 6.85719L21.3152 7.02919L21.3463 7.20319L21.3711 7.38119L21.3897 7.56119L21.4 7.74519L21.4021 7.93119V7.94519V7.95919V7.97319V7.98519V7.99919V8.01319V8.02719V8.04119L21.4 8.05519V8.06719V8.08119L21.398 8.09519V8.10919V8.12319L21.3959 8.13519V8.14919L21.3938 8.16319V8.17719L21.3918 8.18919V8.20319L21.3897 8.21719L21.3876 8.22919V8.24319L21.3856 8.25719L21.3835 8.26919L21.3814 8.28319L21.3794 8.29719V8.30919L21.3773 8.32319L21.3752 8.33519L21.3731 8.34919L21.3711 8.36119L21.369 8.37519L21.3669 8.38719L21.3628 8.40119L21.3607 8.41319L21.3587 8.42519L21.3566 8.43919L21.3545 8.45119H14.9243L14.9781 8.54719L15.0318 8.63919L15.0856 8.72919L15.1394 8.81719L15.1932 8.90319L15.2469 8.98719L15.3007 9.06719L15.3545 9.14519L15.4103 9.21919L15.4641 9.29319L15.5179 9.36319L15.5737 9.43119L15.6275 9.49719L15.6833 9.56119L15.7371 9.62119L15.793 9.67919L15.8488 9.73519L15.9026 9.78919L15.9584 9.83919L16.0143 9.88719L16.0701 9.93319L16.126 9.97719L16.1818 10.0172L16.2376 10.0552L16.2935 10.0912L16.3493 10.1252L16.4072 10.1552L16.4631 10.1852L16.5189 10.2112L16.5768 10.2332L16.6327 10.2552L16.6906 10.2732L16.7464 10.2892L16.8043 10.3032L16.8623 10.3152L16.9181 10.3232L16.976 10.3292L17.0339 10.3332L17.0918 10.3352L17.1601 10.3332L17.2263 10.3312L17.2925 10.3272L17.3586 10.3212L17.4248 10.3152L17.4889 10.3052L17.551 10.2952L17.613 10.2852L17.6751 10.2712L17.7351 10.2572L17.795 10.2412L17.855 10.2232L17.9129 10.2052L17.9688 10.1852L18.0246 10.1632L18.0805 10.1412L18.1342 10.1172L18.188 10.0912L18.2397 10.0652L18.2914 10.0372L18.3411 10.0072L18.3907 9.97719L18.4403 9.94519L18.4858 9.91119L18.5334 9.87719L18.5789 9.84319L18.6224 9.80519L18.6658 9.76719L18.7092 9.72919L18.7506 9.68919L18.7899 9.64719L18.8292 9.60519L18.8685 9.56119L18.9057 9.51719L18.9409 9.47119L18.976 9.42519L19.0091 9.37719L19.0422 9.32919L19.0732 9.27919H21.2408L21.1994 9.41119L21.1539 9.54119L21.1043 9.66719L21.0526 9.79119L20.9947 9.91119L20.9326 10.0312L20.8664 10.1452L20.7982 10.2592L20.7237 10.3692L20.6472 10.4752L20.5665 10.5812L20.4817 10.6812L20.3928 10.7792L20.3018 10.8752L20.2066 10.9672L20.1094 11.0552L20.006 11.1412L19.9005 11.2232L19.793 11.3032L19.6813 11.3772L19.5655 11.4492L19.4497 11.5192L19.3276 11.5832L19.2035 11.6452L19.0774 11.7032L18.9471 11.7572L18.8147 11.8092L18.6803 11.8552L18.5438 11.8972L18.4031 11.9372L18.2604 11.9732L18.1156 12.0032L17.9667 12.0312L17.8178 12.0532L17.6647 12.0732L17.5117 12.0872L17.3545 12.0992L17.1952 12.1052L17.0339 12.1072L16.8416 12.1032L16.6492 12.0932L16.4631 12.0772L16.2769 12.0532L16.097 12.0252L15.9191 11.9892L15.7454 11.9472L15.5758 11.8992L15.4103 11.8432L15.2469 11.7832L15.0898 11.7172L14.9346 11.6472L14.7857 11.5692L14.6389 11.4872L14.4982 11.3992L14.3617 11.3052L14.2314 11.2072L14.1032 11.1032L13.9812 10.9952L13.8633 10.8812L13.7516 10.7632L13.644 10.6392L13.5427 10.5132L13.4475 10.3812L13.3565 10.2432L13.2697 10.1032L13.1911 9.95919L13.1166 9.80919L13.0484 9.65719L12.9863 9.49919L12.9305 9.33919L12.8808 9.17519L12.8374 9.00719L12.8023 8.83519L12.7712 8.66119L12.7464 8.48319L12.7299 8.30319L12.7195 8.11919L12.7154 7.93119L12.7195 7.74319L12.7299 7.55919L12.7485 7.37719L12.7733 7.19919L12.8064 7.02519L12.8457 6.85119L12.8912 6.68319L12.9429 6.51719L13.0008 6.35519L13.0649 6.19719L13.1373 6.04319L13.2138 5.89319L13.2966 5.74719L13.3855 5.60519L13.4786 5.46719L13.5779 5.33319L13.6833 5.20319L13.793 5.07919L13.9088 4.95719L14.0287 4.84319L14.1549 4.73319L14.2831 4.62719L14.4176 4.52719L14.5561 4.43119L14.6989 4.34119L14.8478 4.25719L14.9987 4.17919L15.1539 4.10519L15.3131 4.03919L15.4765 3.97719L15.642 3.92119L15.8116 3.87119L15.9853 3.82919L16.1611 3.79119L16.339 3.76119L16.521 3.73719L16.7071 3.72119L16.8933 3.71119L17.0836 3.70719L17.2759 3.71119L17.4641 3.72119ZM26.5583 3.70519L26.6576 3.71119L26.7548 3.72119L26.8499 3.73319L26.9451 3.74719L27.0402 3.76319L27.1333 3.78119L27.2243 3.80319L27.3153 3.82719L27.4042 3.85319L27.4931 3.88119L27.5779 3.91119L27.6648 3.94319L27.7496 3.97919L27.8323 4.01519L27.913 4.05519L27.9937 4.09519L28.0723 4.13919L28.1509 4.18519L28.2253 4.23119L28.3018 4.28119L28.3742 4.33119L28.4466 4.38519L28.5169 4.43919L28.5852 4.49519L28.6514 4.55319L28.7176 4.61319L28.7817 4.67519L28.8437 4.73919L28.9058 4.80519L28.9637 4.87119V3.84319H31.032V11.9712H28.9637V10.9232L28.9058 10.9912L28.8437 11.0572L28.7817 11.1212L28.7176 11.1852L28.6514 11.2452L28.5831 11.3052L28.5149 11.3612L28.4425 11.4172L28.3701 11.4712L28.2956 11.5232L28.2212 11.5712L28.1447 11.6192L28.0661 11.6652L27.9854 11.7092L27.9027 11.7512L27.8199 11.7892L27.7351 11.8272L27.6503 11.8632L27.5635 11.8952L27.4745 11.9252L27.3835 11.9552L27.2925 11.9812L27.1995 12.0032L27.1064 12.0252L27.0112 12.0452L26.914 12.0612L26.8168 12.0752L26.7175 12.0872L26.6162 12.0952L26.5149 12.1032L26.4135 12.1052L26.3101 12.1072L26.095 12.1032L25.884 12.0872L25.6772 12.0612L25.4745 12.0252L25.276 11.9812L25.0815 11.9272L24.8913 11.8632L24.7051 11.7912L24.5252 11.7092L24.3514 11.6192L24.1819 11.5212L24.0164 11.4152L23.8592 11.3012L23.7062 11.1792L23.5614 11.0492L23.4228 10.9132L23.2884 10.7692L23.1643 10.6192L23.0464 10.4612L22.9347 10.2972L22.8313 10.1272L22.7361 9.95119L22.6472 9.77119L22.5686 9.58319L22.4983 9.39119L22.4362 9.19319L22.3825 8.99119L22.339 8.78319L22.3039 8.57119L22.279 8.35519L22.2646 8.13519L22.2604 7.91119L22.2646 7.68919L22.2811 7.46919L22.3059 7.25519L22.3411 7.04319L22.3866 6.83719L22.4424 6.63519L22.5066 6.43719L22.5789 6.24519L22.6596 6.05719L22.7506 5.87519L22.8478 5.69919L22.9533 5.52919L23.0671 5.36319L23.1891 5.20519L23.3173 5.05319L23.4518 4.90919L23.5945 4.77119L23.7413 4.64119L23.8964 4.51719L24.0578 4.40319L24.2232 4.29519L24.3949 4.19519L24.5728 4.10519L24.7548 4.02119L24.9409 3.94919L25.1312 3.88319L25.3277 3.82919L25.5262 3.78319L25.7289 3.74719L25.9357 3.72119L26.1467 3.70519L26.3597 3.69919L26.459 3.70119L26.5583 3.70519ZM36.4239 3.70319L36.4818 3.70719L36.5397 3.71119L36.5956 3.71719L36.6473 3.72519L36.699 3.73319L36.7486 3.74119L36.7962 3.75119L36.8396 3.76119L36.8831 3.77119L36.9224 3.78119L36.9596 3.79319L36.9948 3.80319L37.0279 3.81319L37.0568 3.82319L37.0858 3.83319L37.1106 3.84319L37.1313 3.85119L37.152 3.85919L37.1685 3.86719L37.1809 3.87319L37.1912 3.87719L37.1995 3.88119L37.2037 3.88319L37.2057 3.88519V5.95919L37.2016 5.95719L37.1933 5.95119L37.1768 5.94319L37.154 5.92919L37.1251 5.91519L37.092 5.89719L37.0527 5.87919L37.0092 5.85719L36.9617 5.83519L36.9079 5.81119L36.8521 5.78719L36.79 5.76319L36.728 5.73919L36.6597 5.71519L36.5894 5.69119L36.517 5.66919L36.4425 5.64919L36.366 5.63119L36.2874 5.61519L36.2068 5.60119L36.1261 5.58919L36.0434 5.58119L35.9606 5.57719H35.8779L35.7952 5.58119L35.7124 5.58919L35.6297 5.60319L35.5511 5.62119L35.4746 5.64319L35.4001 5.67119L35.3298 5.70119L35.2616 5.73719L35.1954 5.77719L35.1313 5.82119L35.0713 5.86719L35.0134 5.91919L34.9596 5.97519L34.9079 6.03319L34.8603 6.09519L34.8148 6.15919L34.7734 6.22919L34.7341 6.29919L34.699 6.37519L34.6659 6.45119L34.639 6.53319L34.6142 6.61519L34.5935 6.70119L34.5749 6.78919L34.5625 6.87919L34.5521 6.97319L34.5459 7.06719L34.5439 7.16519V11.9852H32.4053V3.85119H34.4735V4.64519L34.5149 4.57319L34.5583 4.50519L34.6059 4.43919L34.6535 4.37719L34.7052 4.31719L34.759 4.25919L34.8148 4.20519L34.8727 4.15319L34.9327 4.10319L34.9948 4.05719L35.0589 4.01519L35.125 3.97319L35.1954 3.93719L35.2657 3.90119L35.3402 3.86919L35.4167 3.83919L35.4932 3.81319L35.5739 3.78919L35.6566 3.76919L35.7414 3.75119L35.8303 3.73519L35.9193 3.72319L36.0103 3.71319L36.1054 3.70519L36.2006 3.70119L36.2998 3.69919L36.3619 3.70119L36.4239 3.70319ZM9.62126 11.9772V0.503187H11.7392V11.9772H9.62126ZM42.0641 5.64719L41.8159 5.71919L41.5822 5.81519L41.3609 5.93719L41.1582 6.08119L40.97 6.24719L40.8024 6.43519L40.6556 6.64119L40.5336 6.86519L40.4343 7.10719L40.3598 7.36319L40.3143 7.63519L40.2999 7.91719L40.3143 8.19719L40.3598 8.46719L40.4343 8.72119L40.5336 8.96319L40.6556 9.18719L40.8024 9.39319L40.97 9.58119L41.1582 9.74919L41.3609 9.89519L41.5822 10.0172L41.8159 10.1152L42.0641 10.1872L42.3205 10.2312L42.5874 10.2452L42.8521 10.2292L43.1106 10.1852L43.3568 10.1132L43.5905 10.0132L43.8118 9.88919L44.0165 9.74319L44.2027 9.57519L44.3702 9.38519L44.517 9.17719L44.6411 8.95319L44.7404 8.71319L44.8128 8.46119L44.8583 8.19519L44.8728 7.91719L44.8583 7.64119L44.8128 7.37519L44.7404 7.12119L44.6411 6.88119L44.517 6.65719L44.3702 6.44919L44.2027 6.26119L44.0165 6.09119L43.8118 5.94519L43.5905 5.82119L43.3568 5.72319L43.1106 5.64919L42.8521 5.60519L42.5874 5.58919L42.3205 5.60519L42.0641 5.64719ZM51.6422 5.64719L51.3961 5.71919L51.1624 5.81519L50.9411 5.93719L50.7363 6.08119L50.5502 6.24719L50.3827 6.43519L50.2358 6.64119L50.1117 6.86519L50.0124 7.10719L49.94 7.36319L49.8945 7.63519L49.8801 7.91719L49.8945 8.19719L49.94 8.46719L50.0124 8.72119L50.1117 8.96319L50.2358 9.18719L50.3827 9.39319L50.5502 9.58119L50.7363 9.74919L50.9411 9.89519L51.1624 10.0172L51.3961 10.1152L51.6422 10.1872L51.9008 10.2312L52.1655 10.2452L52.4323 10.2312L52.6888 10.1872L52.937 10.1172L53.1707 10.0212L53.3899 9.90119L53.5947 9.75719L53.7829 9.59319L53.9504 9.40519L54.0952 9.19919L54.2193 8.97519L54.3186 8.73319L54.393 8.47519L54.4365 8.20319L54.453 7.91719L54.4365 7.63119L54.393 7.35719L54.3186 7.09919L54.2193 6.85719L54.0952 6.63319L53.9504 6.42719L53.7829 6.23919L53.5947 6.07519L53.3899 5.93119L53.1707 5.81119L52.937 5.71719L52.6888 5.64719L52.4323 5.60319L52.1655 5.58919L51.9008 5.60519L51.6422 5.64719ZM26.1322 5.64119L25.8861 5.71119L25.6524 5.80719L25.4311 5.92719L25.2263 6.07319L25.0402 6.23919L24.8727 6.42519L24.7258 6.63119L24.6017 6.85719L24.5024 7.09719L24.43 7.35519L24.3845 7.62719L24.3701 7.91119L24.3845 8.19119L24.43 8.45919L24.5024 8.71519L24.6017 8.95519L24.7258 9.18119L24.8727 9.38719L25.0402 9.57519L25.2263 9.74319L25.4311 9.88719L25.6524 10.0112L25.8861 10.1072L26.1322 10.1792L26.3908 10.2232L26.6555 10.2392L26.9223 10.2232L27.1808 10.1812L27.427 10.1112L27.6607 10.0172L27.882 9.89719L28.0847 9.75319L28.2729 9.58719L28.4404 9.40119L28.5873 9.19519L28.7114 8.97119L28.8106 8.72919L28.883 8.47119L28.9285 8.19719L28.943 7.91119L28.9285 7.62519L28.883 7.35319L28.8106 7.09519L28.7114 6.85319L28.5873 6.62919L28.4404 6.42319L28.2729 6.23519L28.0847 6.06919L27.882 5.92719L27.6607 5.80519L27.427 5.71119L27.1808 5.64119L26.9223 5.59719L26.6555 5.58319L26.3908 5.59719L26.1322 5.64119ZM16.401 5.57719L16.1011 5.68719L15.824 5.83919L15.5758 6.03119L15.3607 6.26119L15.1808 6.53119L15.0422 6.83719L14.947 7.17719H19.1436L18.914 6.82319L18.6823 6.50919L18.4507 6.23919L18.219 6.00919L17.9874 5.82119L17.7578 5.67519L17.5262 5.57119L17.2945 5.50719L17.0629 5.48719L16.7237 5.50919L16.401 5.57719Z" fill="black"/>
</svg>
