<svg width="57" height="14" viewBox="0 0 57 14" fill="none" xmlns="http://www.w3.org/2000/svg">
<g clip-path="url(#clip0_144_186)">
<path d="M10.0305 0.841187H7.22389C7.22389 3.1943 6.1667 5.34168 4.32921 6.75612L3.22168 7.60479L7.52594 13.5969H11.0625L7.09803 8.08055C8.97328 6.17749 10.0305 3.60578 10.0305 0.841187Z" fill="black"/>
<path d="M2.86951 0.841187H0V13.5969H2.86951V0.841187Z" fill="black"/>
<path d="M14.5994 0.841187H11.8936V13.5969H14.5994V0.841187Z" fill="black"/>
<path d="M38.3357 4.53159C37.3037 4.53159 36.322 4.85305 35.6676 5.76601V4.7759H33.1001V13.5969H35.7053V8.96779C35.7053 7.6305 36.5863 6.97472 37.6435 6.97472C38.7762 6.97472 39.4306 7.66908 39.4306 8.95494V13.6097H42.0107V7.99054C42.0107 5.93317 40.4123 4.53159 38.3357 4.53159Z" fill="black"/>
<path d="M22.7797 4.7759V5.34168C22.0497 4.82733 21.1687 4.53159 20.2122 4.53159C17.6951 4.53159 15.6562 6.61467 15.6562 9.18639C15.6562 11.7581 17.6951 13.8412 20.2122 13.8412C21.1687 13.8412 22.0497 13.5454 22.7797 13.0311V13.5969H25.3597V4.7759H22.7797ZM20.4262 11.4495C19.1299 11.4495 18.0853 10.4337 18.0853 9.18639C18.0853 7.93911 19.1299 6.92328 20.4262 6.92328C21.7225 6.92328 22.7671 7.93911 22.7671 9.18639C22.7671 10.4337 21.7225 11.4495 20.4262 11.4495Z" fill="black"/>
<path d="M29.3622 5.92032V4.77591H26.7192V13.5969H29.3748V9.48214C29.3748 8.09341 30.8473 7.34762 31.8667 7.34762C31.8793 7.34762 31.8919 7.34762 31.8919 7.34762V4.77591C30.8473 4.77591 29.8782 5.23881 29.3622 5.92032Z" fill="black"/>
<path d="M50.0404 4.7759V5.34168C49.3105 4.82733 48.4295 4.53159 47.473 4.53159C44.9559 4.53159 42.917 6.61467 42.917 9.18639C42.917 11.7581 44.9559 13.8412 47.473 13.8412C48.4295 13.8412 49.3105 13.5454 50.0404 13.0311V13.5969H52.6205V4.7759H50.0404ZM47.6869 11.4495C46.3906 11.4495 45.346 10.4337 45.346 9.18639C45.346 7.93911 46.3906 6.92328 47.6869 6.92328C48.9832 6.92328 50.0278 7.93911 50.0278 9.18639C50.0404 10.4337 48.9832 11.4495 47.6869 11.4495Z" fill="black"/>
<path d="M54.6214 5.03317C54.6214 4.90459 54.5333 4.82744 54.3949 4.82744H54.1558V5.49608H54.269V5.25177H54.3949L54.4956 5.49608H54.6214L54.5082 5.22605C54.5837 5.18748 54.6214 5.12318 54.6214 5.03317ZM54.3949 5.13604H54.269V4.93031H54.3949C54.4704 4.93031 54.5082 4.96888 54.5082 5.03317C54.5082 5.09747 54.483 5.13604 54.3949 5.13604Z" fill="black"/>
<path d="M54.3569 4.54456C54.0171 4.54456 53.7402 4.82744 53.7402 5.17462C53.7528 5.5218 54.0171 5.80469 54.3569 5.80469C54.6967 5.80469 54.9736 5.5218 54.9736 5.17462C54.9736 4.82744 54.6967 4.54456 54.3569 4.54456ZM54.3569 5.68897C54.08 5.68897 53.8661 5.45751 53.8661 5.17462C53.8661 4.89174 54.0926 4.66028 54.3569 4.66028C54.6338 4.66028 54.8478 4.89174 54.8478 5.17462C54.8478 5.45751 54.6212 5.68897 54.3569 5.68897Z" fill="black"/>
<path d="M55.3765 10.4722C54.4829 10.4722 53.7529 11.218 53.7529 12.131C53.7529 13.044 54.4829 13.7898 55.3765 13.7898C56.27 13.7898 57 13.044 57 12.131C57 11.2052 56.27 10.4722 55.3765 10.4722Z" fill="black"/>
</g>
<defs>
<clipPath id="clip0_144_186">
<rect width="57" height="13" fill="white" transform="translate(0 0.841187)"/>
</clipPath>
</defs>
</svg>
