<svg width="31" height="30" viewBox="0 0 31 30" fill="none" xmlns="http://www.w3.org/2000/svg">
<g clip-path="url(#clip0_1820_364)">
<path d="M9.56418 10.0173V7.56036C9.56418 5.93134 10.2113 4.36904 11.3632 3.21714C12.5151 2.06525 14.0774 1.41812 15.7064 1.41812C17.3355 1.41812 18.8978 2.06525 20.0496 3.21714C21.2015 4.36904 21.8487 5.93134 21.8487 7.56036V10.0173H25.534C25.8598 10.0173 26.1723 10.1467 26.4027 10.3771C26.633 10.6074 26.7625 10.9199 26.7625 11.2457V25.9871C26.7625 26.3129 26.633 26.6254 26.4027 26.8557C26.1723 27.0861 25.8598 27.2155 25.534 27.2155H5.87884C5.55303 27.2155 5.24057 27.0861 5.01019 26.8557C4.77982 26.6254 4.65039 26.3129 4.65039 25.9871V11.2457C4.65039 10.9199 4.77982 10.6074 5.01019 10.3771C5.24057 10.1467 5.55303 10.0173 5.87884 10.0173H9.56418ZM9.56418 12.4742H7.10729V24.7586H24.3056V12.4742H21.8487V14.9311H19.3918V12.4742H12.0211V14.9311H9.56418V12.4742ZM12.0211 10.0173H19.3918V7.56036C19.3918 6.58295 19.0035 5.64557 18.3124 4.95443C17.6212 4.26329 16.6838 3.87502 15.7064 3.87502C14.729 3.87502 13.7916 4.26329 13.1005 4.95443C12.4094 5.64557 12.0211 6.58295 12.0211 7.56036V10.0173Z" fill="#131212"/>
</g>
<defs>
<clipPath id="clip0_1820_364">
<rect width="29.4828" height="29.4828" fill="white" transform="translate(0.964844 0.189667)"/>
</clipPath>
</defs>
</svg>
